<svg xmlns="http://www.w3.org/2000/svg" viewBox="0 0 900 560" role="img" aria-labelledby="title desc"><title id="title">Coffee counter service</title><desc id="desc">A barista hands a drink to a customer at a coffee counter.</desc><defs><linearGradient id="cafe" x1="0" y1="0" x2="1" y2="1"><stop stop-color="#c6a17f"/><stop offset="1" stop-color="#5b4030"/></linearGradient><filter id="grain"><feTurbulence baseFrequency=".85" numOctaves="2"/><feColorMatrix type="saturate" values="0"/><feComponentTransfer><feFuncA type="table" tableValues="0 .07"/></feComponentTransfer><feBlend in="SourceGraphic" mode="multiply"/></filter></defs><rect width="900" height="560" fill="url(#cafe)"/><rect x="70" y="82" width="760" height="235" rx="12" fill="#8a6045" opacity=".7"/><g fill="#d8c2a6" opacity=".6"><rect x="112" y="118" width="82" height="110" rx="7"/><rect x="226" y="120" width="82" height="110" rx="7"/><rect x="340" y="119" width="82" height="110" rx="7"/></g><rect y="350" width="900" height="210" fill="#5f3b28"/><rect x="190" y="318" width="520" height="78" rx="15" fill="#2d211b"/><ellipse cx="448" cy="397" rx="304" ry="38" fill="#261914" opacity=".35"/><g><ellipse cx="328" cy="255" rx="32" ry="37" fill="#b87957"/><path d="M295 232c21-35 70-31 89 2-32-1-52 4-89-2z" fill="#2c2624"/><path d="M286 307c31-42 83-41 116 0l25 106H260z" fill="#23292c"/><path d="M386 314c44 17 70 28 107 47" stroke="#b87957" stroke-width="15" stroke-linecap="round"/><path d="M308 412l-24 88M359 412l25 88" stroke="#1a1e22" stroke-width="16" stroke-linecap="round"/></g><g><ellipse cx="596" cy="266" rx="31" ry="36" fill="#c08a66"/><path d="M561 318c30-38 83-39 114-1l25 102H535z" fill="#7d415d"/><path d="M566 322c-45 16-73 28-111 44" stroke="#c08a66" stroke-width="15" stroke-linecap="round"/><path d="M581 418l-29 82M634 418l29 82" stroke="#20252b" stroke-width="16" stroke-linecap="round"/></g><g><rect x="466" y="333" width="36" height="54" rx="7" fill="#f2efe8"/><path d="M462 332h44l-6-17h-32z" fill="#d9c7a8"/><path d="M486 350c-10 2-18 3-27 2" stroke="#9c7d58" stroke-width="4" opacity=".45"/></g><rect width="900" height="560" fill="transparent" filter="url(#grain)" opacity=".32"/></svg>