<svg xmlns="http://www.w3.org/2000/svg" viewBox="0 0 900 560" role="img" aria-labelledby="title desc"><!-- photo-realistic grayscale TOEIC-style scene: text-only SVG, no binary embedded image --><title id="title">Coffee counter service</title><desc id="desc">A barista hands a drink to a customer at a coffee counter.</desc><defs><linearGradient id="cafe" x1="0" y1="0" x2="1" y2="1"><stop stop-color="#a8a8a8"/><stop offset="1" stop-color="#464646"/></linearGradient><filter id="grain"><feTurbulence baseFrequency=".85" numOctaves="2"/><feColorMatrix type="saturate" values="0"/><feComponentTransfer><feFuncA type="table" tableValues="0 .07"/></feComponentTransfer><feBlend in="SourceGraphic" mode="multiply"/></filter></defs><rect width="900" height="560" fill="url(#cafe)"/><rect x="70" y="82" width="760" height="235" rx="12" fill="#696969" opacity=".7"/><g fill="#c5c5c5" opacity=".6"><rect x="112" y="118" width="82" height="110" rx="7"/><rect x="226" y="120" width="82" height="110" rx="7"/><rect x="340" y="119" width="82" height="110" rx="7"/></g><rect y="350" width="900" height="210" fill="#444444"/><rect x="190" y="318" width="520" height="78" rx="15" fill="#242424"/><ellipse cx="448" cy="397" rx="304" ry="38" fill="#1c1c1c" opacity=".35"/><g><ellipse cx="328" cy="255" rx="32" ry="37" fill="#888888"/><path d="M295 232c21-35 70-31 89 2-32-1-52 4-89-2z" fill="#282828"/><path d="M286 307c31-42 83-41 116 0l25 106H260z" fill="#282828"/><path d="M386 314c44 17 70 28 107 47" stroke="#888888" stroke-width="15" stroke-linecap="round"/><path d="M308 412l-24 88M359 412l25 88" stroke="#1d1d1d" stroke-width="16" stroke-linecap="round"/></g><g><ellipse cx="596" cy="266" rx="31" ry="36" fill="#969696"/><path d="M561 318c30-38 83-39 114-1l25 102H535z" fill="#565656"/><path d="M566 322c-45 16-73 28-111 44" stroke="#969696" stroke-width="15" stroke-linecap="round"/><path d="M581 418l-29 82M634 418l29 82" stroke="#242424" stroke-width="16" stroke-linecap="round"/></g><g><rect x="466" y="333" width="36" height="54" rx="7" fill="#efefef"/><path d="M462 332h44l-6-17h-32z" fill="#c9c9c9"/><path d="M486 350c-10 2-18 3-27 2" stroke="#828282" stroke-width="4" opacity=".45"/></g><rect width="900" height="560" fill="transparent" filter="url(#grain)" opacity=".32"/></svg>