<svg xmlns="http://www.w3.org/2000/svg" viewBox="0 0 900 560" role="img" aria-labelledby="title desc"><!-- photo-realistic grayscale TOEIC-style scene: text-only SVG, no binary embedded image --><title id="title">Bicycle parking by an office building</title><desc id="desc">A cyclist parks a bicycle beside a modern office building.</desc><defs><linearGradient id="sky" x1="0" y1="0" x2="0" y2="1"><stop stop-color="#cbcbcb"/><stop offset="1" stop-color="#999999"/></linearGradient><filter id="grain"><feTurbulence baseFrequency=".8" numOctaves="2"/><feColorMatrix type="saturate" values="0"/><feComponentTransfer><feFuncA type="table" tableValues="0 .06"/></feComponentTransfer><feBlend in="SourceGraphic" mode="multiply"/></filter></defs><rect width="900" height="560" fill="url(#sky)"/><rect x="480" y="48" width="330" height="340" rx="8" fill="#bebebe"/><g fill="#727272" opacity=".85"><rect x="520" y="88" width="55" height="42"/><rect x="610" y="88" width="55" height="42"/><rect x="700" y="88" width="55" height="42"/><rect x="520" y="162" width="55" height="42"/><rect x="610" y="162" width="55" height="42"/><rect x="700" y="162" width="55" height="42"/><rect x="520" y="236" width="55" height="42"/><rect x="610" y="236" width="55" height="42"/><rect x="700" y="236" width="55" height="42"/></g><rect y="375" width="900" height="185" fill="#7a7a7a"/><path d="M70 410c180-38 520-36 770 0" stroke="#d7d7d7" stroke-width="9" opacity=".5"/><g fill="none" stroke="#2c2c2c" stroke-width="12"><circle cx="336" cy="395" r="62"/><circle cx="505" cy="395" r="62"/><path d="M336 395l78-88 91 88M414 307l-23 88M414 307h72M486 307l28-38"/><path d="M319 303h70"/></g><g><ellipse cx="405" cy="257" rx="30" ry="35" fill="#7d7d7d"/><path d="M374 306c25-36 78-38 105-1l24 101H350z" fill="#545454"/><path d="M472 314c37 22 56 49 67 82" stroke="#7d7d7d" stroke-width="15" stroke-linecap="round"/><path d="M383 311c-28 31-41 61-49 96" stroke="#7d7d7d" stroke-width="15" stroke-linecap="round"/><path d="M392 406l-50 83M453 406l48 83" stroke="#252525" stroke-width="17" stroke-linecap="round"/></g><rect x="268" y="448" width="310" height="12" rx="6" fill="#575757" opacity=".7"/><rect width="900" height="560" fill="transparent" filter="url(#grain)" opacity=".3"/></svg>